<svg xmlns="http://www.w3.org/2000/svg" width="243" height="59" viewBox="0 0 243 59"><path fill="#fff" d="M209.2 25.9c-2.1 0-3.6-1.1-4.1-1.6-.4-.4-.5-1-.1-1.4.4-.4 1-.5 1.4-.1.8.7 1.9 1.1 2.9 1.1 1.4 0 2.4-.8 2.7-1.1.4-.4 1-.3 1.4.1.4.4.3 1-.1 1.4-1.1 1-2.5 1.5-4 1.6h-.1z"/><path fill="#91D4F4" d="M217.7 8.4l.5-.3-.5.3zM218.6 7.9c.1-.1.2-.1.4-.2-.1.1-.2.1-.4.2zM216.3 9.5l.1-.1-.1.1zM217 8.9c.1-.1.2-.2.4-.3-.2.2-.3.2-.4.3z"/><path fill="#91D4F4" d="M216.4 9.4c.2-.2.4-.3.5-.5-.1.2-.3.3-.5.5zM217.3 8.7l.4-.3c-.1.1-.2.2-.4.3zM218.2 8.1c.2-.1.3-.2.5-.2-.2.1-.4.1-.5.2z" opacity=".3"/><path fill="#91D4F4" d="M192.7 4.9c.1-.1.2-.2.2-.4.1-.3.3-.6.6-.8.5-.4 1.2-.6 1.8-.8 1.5-.3 3-.3 4.5 0 1 .2 2.5.6 2.8 1.7.1.4.4.5.8.5.5.1 2.4.4 2.9.6.2 0 .9.3.9 0 0-.2-.2-.5-.3-.7l-.5-.7c-.4-.5-.8-.9-1.2-1.3-.9-.8-1.9-1.5-3-2-1.4-.6-2.9-1-4.6-1-2.3 0-4.7.7-6.6 2.1-.7.5-1.3 1.1-1.9 1.7-.2.2-1.6 1.7-1.1 2 .2.1.7 0 .9-.1 1.2-.3 2.8-.5 3.2-.6.3 0 .5-.1.6-.2z"/><path fill="#fff" d="M197.7 9.1c1.4 0 3.1-3 3-3.6-.2-1.7-5.8-1.7-5.9 0 0 .6 1.6 3.6 2.9 3.6z"/><path d="M34.4 25.3l.9-1-1.5 1.5c.2-.1.4-.3.6-.5zM34.2 48.9l1.2 1.1-1.2-1.1zM154 31.4c-6.4 0-9.2 6-9.2 11.7 0 6.6 3.8 11.6 9.1 11.6h.1c5.2 0 9.2-4.9 9.2-11.8-.1-5-2.7-11.5-9.2-11.5z" fill="none"/><path fill="#fff" d="M154.1 27.3c-8.3 0-15 5.9-15 16.1 0 9.6 6.4 15.6 14.5 15.6h.1c7.2 0 15-4.9 15-16.1 0-9.3-5.9-15.6-14.6-15.6zm-.2 27.5c-5.4 0-9.1-5-9.1-11.6 0-5.8 2.8-11.7 9.2-11.7 6.5 0 9.1 6.4 9.1 11.6 0 6.8-4 11.7-9.2 11.7zM35.4 50l-1.3-1.1c-.7-.4-1.5-.3-2.2.2-3.2 2.4-6 4.2-10.8 4.2-8.6 0-15.6-7.2-15.6-16.1 0-8.9 7-16.1 15.6-16.1 3.7 0 7.7 1.6 10.7 4.2.7.7 1.5.8 2.1.5l1.5-1.5c.3-.3.5-.8.5-1.3s-.2-1-.6-1.4c-4.4-3.7-8.8-5.4-14.1-5.4-11.7 0-21.2 9.5-21.2 21.1 0 11.6 9.5 21 21.1 21 5.5 0 10.4-2 14.2-5.7.4-.4.6-1 .6-1.5s-.3-.9-.5-1.1zM45.8 13.9h-1.4c-1.1 0-2.1.9-2.1 2.1v40.3c0 1.1.9 2.1 2.1 2.1h1.4c1.1 0 2.1-.9 2.1-2.1v-40.4c-.1-1.1-1-2-2.1-2zM58.4 28h-1.4c-1.1 0-2 .9-2 2v26.1c0 1.1.9 2.1 2.1 2.1h1.4c1.1 0 2.1-.9 2.1-2.1v-26.1c-.1-1.1-1.1-2-2.2-2zM103.5 28h-1.4c-1.1 0-2.1.9-2.1 2.1v26.1c0 1.1.9 2.1 2.1 2.1h1.4c1.1 0 2.1-.9 2.1-2.1v-26.2c-.1-1.1-1-2-2.1-2zM124.7 40.3c.4-.4 3.8-4.1 6.9-7.3l1.4-1.5.1-.1c.3-.4.5-.8.5-1.4 0-1.1-.9-2-2-2h-1.2000000000000002c-.5 0-1 .2-1.4.6l-.1.1-10.9 11.5v-24.400000000000002c0-1.1-.9-2-2-2h-1.4c-1.1 0-2.1.9-2.1 2.1v40.3c0 1.1.9 2.1 2.1 2.1h1.4c1.1 0 2-.9 2-2v-9.399999999999999s2.3-2.7 3-3.3c8.8 2 10.2 9 10.5 12.6v.2c.1 1.1 1 1.9 2 1.9h1c1.1 0 2.1-.9 2.1-2.1v-.1c-.3-4.1-1.5-13.2-11.9-15.8zM81 27.3c-3.9 0-7.1 2.1-8.6 4.9v-2.3000000000000003c-.1-1.1-.9-2-2-2h-.9c-1.1 0-2 .9-2.1 2v26.299999999999997c.1 1 1 1.8 2 1.8h1.4c1.1 0 2-.9 2.1-2v-14.6c0-6.9 4.2-9.6 7.8-9.6 5.2 0 7 4.1 7 9v15.3c0 1.1.9 2 2.1 2h1.4c1.1 0 2.1-.9 2.1-2.1v-16c-.1-10.2-6.9-12.7-12.3-12.7zM57.7 16.1c-2.1 0-3.4 1.5-3.4 3.4 0 1.8 1.3 3.4 3.3 3.4h.1c2.1 0 3.4-1.6 3.4-3.4 0-1.9-1.4-3.4-3.4-3.4zM102.8 16.1c-2.1 0-3.4 1.5-3.4 3.4 0 1.8 1.3 3.4 3.3 3.4h.1c2.1 0 3.4-1.6 3.4-3.4 0-1.9-1.4-3.4-3.4-3.4z"/><path fill="#91D4F4" d="M187 56.1zM208.7 9.2l-.2-.9c-.1-.4-.2-.6-.6-.7-.4-.2-2.1-.7-4.5-.9-.6-.1-1.2-.3-1.5.3-.4.6-.7 1.2-1.2 1.7-.7.9-1.7 2-2.9 2-1.1 0-2-1-2.6-1.8-.4-.5-.8-1-1.1-1.6-.8-1.3-2-.8-3.2-.6-.8.2-3.3.7-3.7.9-.3.2-.4.5-.5.7l-.2.9c-.1.6-.2 1.3-.2 1.9 0 1.5.3 3 .9 4.4.9 2 2.3 3.8 4.2 5 .5.3.9.6 1.4.8.3.1.7.3.6.6-.1.6-1.2.9-1.6 1.1-1.7.9-3.3 1.9-4.8 3.2-2.1 1.7-3.9 3.8-5.5 6-2 2.9-3.6 6.2-4.6 9.6-1.4 4.5-2.1 9.3-2.2 14v.2c0 1.1.9 2 2 2h4.5c1 0 1.8-.7 2-1.6 0-.2 0-.3.1-.5.5-4.1 1.4-9.6 3.6-13.9 2.5-5.1 6.3-9.6 11.1-12.6l2.1-1.2c.9-.4 2-.8 1.1-1.9-1-1.2-1.7-2.6-2-4.1-.2-.7-.3-1.5-.3-2.3 0-4.3 2.8-8.2 6.9-9.5.5-.2 1.1-.3 1.7-.4.5-.1.9-.1 1.1-.3.1.1.2-.1.1-.5z"/><path fill="#6DC3EE" d="M243 55.9c-.2-4.7-1.1-9.3-2.8-13.7-1.3-3.3-3.1-6.4-5.3-9.1-1.5-1.9-3.3-3.6-5.2-5.1l-1.2-.9c-.3-.2-.8-.4-.9-.8v-.1c0-.4.5-.5.8-.7 1-.6 1.8-1.3 2.5-2.2 1.5-1.8 2.3-4.1 2.3-6.4 0-5.6-4.5-10.1-10.1-10.1-1.5 0-2.9.3-4.2.9-.1.1-.2.1-.4.2s-.3.2-.5.2l-.5.3-.4.3c-.1.1-.2.2-.4.3-.2.1-.4.3-.5.5l-.1.1c-.6.5-2.1 1.9-1.4 2.7l1 .9c.6.6 1.2 1.3 1.6 2.1.9 1.5 1.4 3.3 1.4 5.1 0 1.9-.5 3.6-1.4 5.2l-.3.4s0 .1-.1.1c-.4.6-.9 1-.2 1.6.3.3.6.5 1 .7l3.1 2.1c3.3 2.5 6.1 5.5 8.3 8.9.6 1 1.2 2 1.7 3 2.2 4.4 3.2 9.9 3.6 14v.1c.1 1 1 1.8 2 1.8h4.3c1.1 0 2-.8 2-1.9.3-.2.3-.3.3-.5z"/><path d="M209.4 53.1z" fill="none"/><path fill="#fff" d="M231.1 56.3v-.5c-.3-2.7-.9-5.3-1.6-7.8-1.2-3.8-2.9-7.4-5.3-10.4-2-2.6-4.5-4.7-7.4-6-1-.5-2-.8-3.1-1-.8-.2-2.3-.5-2.9.1-.2.2-.3.6-.3 1.2.1 1.3.2 2.6.4 3.9.2 2.3.5 4.6.7 7 .1 1.2.2 2.3.4 3.5.1.6.3 2.7.3 3.2-.1 1-2.2 3.1-2.5 3.4h-.1l-.2.1h-.1c-.4.2-.8.1-1-.2-.3-.4-2.5-2.4-2.5-3.4 0-.5.2-2.6.3-3.2.1-1.2.2-2.3.4-3.5 0-.2 0-.4.1-.6 0 0 .4-4.8.7-7.1.1-1.2.3-2.4.3-3.6 0-1.9-2.2-1.1-3.2-.9-1 .2-2.1.6-3 1-2.8 1.3-5.3 3.4-7.3 6-2.4 3-4.1 6.6-5.3 10.4-.8 2.6-1.3 5.3-1.7 8.1v.2c0 1.1.9 2 2 2h40c.9.1 1.8-.8 1.9-1.9zM209.6 53l-.2.1c.1-.1.2-.1.2-.1z"/></svg>